<?xml version="1.0" encoding="utf-8"?>
<!-- Generator: Adobe Illustrator 21.1.0, SVG Export Plug-In . SVG Version: 6.00 Build 0)  -->
<svg version="1.1" id="Layer_1" xmlns="http://www.w3.org/2000/svg" xmlns:xlink="http://www.w3.org/1999/xlink" x="0px" y="0px"
	 viewBox="0 0 100 100" style="enable-background:new 0 0 100 100;" xml:space="preserve">
<title>70 all</title>
<path d="M54.2,12.7c-2.3-2.3-6.1-2.3-8.4,0c-1.1,1.1-1.7,2.6-1.7,4.2v7c-5.1,1.9-8.6,6.6-9,12C32,37.4,30,40.6,30,44v36c0,5,4,9,9,9
	h22c5,0,9-4,9-9V44c0-3.4-1.9-6.5-5-8.1c-0.4-5.4-3.9-10.1-9-12v-7C56,15.3,55.3,13.8,54.2,12.7z M46.1,16.9c0-2.2,1.8-3.9,3.9-3.9
	c2.2,0,3.9,1.8,3.9,3.9l0,0v6.4C53,23.1,52,23,51,23h-2c-1,0-2,0.1-2.9,0.3V16.9z M68,44v36c0,3.9-3.1,7-7,7H39c-3.9,0-7-3.1-7-7
	v-3.7h12.3c0.6,0,1-0.4,1-1s-0.4-1-1-1H32v-11h12.3c0.6,0,1-0.4,1-1s-0.4-1-1-1H32v-11h12.3c0.6,0,1-0.4,1-1s-0.4-1-1-1H32V44
	c0-3.9,3.1-7,7-7h22C64.9,37,68,40.1,68,44z M62.9,35.2C62.2,35.1,61.6,35,61,35H39c-0.6,0-1.2,0.1-1.9,0.2c0.7-4.5,3.9-8.3,8.2-9.6
	l0,0c1.2-0.4,2.4-0.6,3.6-0.6h2c1.2,0,2.4,0.2,3.6,0.6l0,0C59,26.9,62.2,30.7,62.9,35.2z"/>
</svg>
