<?xml version="1.0" encoding="utf-8"?>
<!-- Generator: Adobe Illustrator 21.1.0, SVG Export Plug-In . SVG Version: 6.00 Build 0)  -->
<svg version="1.1" id="Layer_1" xmlns="http://www.w3.org/2000/svg" xmlns:xlink="http://www.w3.org/1999/xlink" x="0px" y="0px"
	 viewBox="0 0 100 100" style="enable-background:new 0 0 100 100;" xml:space="preserve">
<path d="M73.9,41.5c-3.3-5.1-9.7-8.7-15.5-8.7c-2.7,0-5.3,0.7-7.5,2c-0.7-2.8-2.7-7.1-7.8-12.3c-0.4-0.4-1-0.4-1.4,0s-0.4,1,0,1.4
	c4.4,4.4,6.3,8.1,7.1,10.7c-2.1-1.1-4.6-1.8-7.1-1.8c-5.9,0-12.3,3.6-15.5,8.7c-3,4.8-3.7,11.2-1.7,17.7c1.6,5.1,5,10.9,9.1,15
	C37.3,78,41.1,80,44.5,80c0.8,0,1.6-0.1,2.3-0.3c1.1-0.3,2.2-1,3.2-1.8c1,0.9,2,1.5,3.2,1.8c3.9,1.2,8.7-0.8,13.4-5.6
	c4.1-4.1,7.6-9.9,9.1-15C77.6,52.7,77,46.2,73.9,41.5z M73.7,58.5c-1.5,4.8-4.8,10.3-8.6,14.2c-4.1,4.2-8.2,6-11.4,5.1
	c-1.1-0.3-2.1-1-3-2c-0.2-0.2-0.5-0.3-0.7-0.3c-0.3,0-0.6,0.1-0.7,0.3c-0.9,1-1.9,1.7-3,2c-3.1,0.9-7.3-0.9-11.4-5.1
	c-3.8-3.9-7.2-9.3-8.6-14.2c-1.8-5.9-1.2-11.7,1.5-16c2.9-4.6,8.6-7.8,13.9-7.8c2.9,0,5.6,0.9,7.7,2.5c0,0.5,0,0.8,0,0.8
	c-0.1,0.5,0.3,1,0.8,1.1h0.1c0.5,0,0.9-0.4,1-0.9c0-0.1,0.1-0.6,0-1.5c2-1.3,4.5-2.1,7.1-2.1c5.2,0,10.9,3.2,13.9,7.8
	C75,46.8,75.5,52.7,73.7,58.5z M55.3,31.2c0.7,0,1.3-0.1,2-0.4c5.3-2.1,8-8,8.1-8.2c0.1-0.2,0.1-0.5,0-0.8s-0.3-0.5-0.5-0.6
	c-0.3-0.1-6.2-2.5-11.5-0.5c-2.8,1.1-4.1,4.2-3,7C51.1,29.9,53.2,31.2,55.3,31.2z M54.1,22.7c3.3-1.3,7.2-0.5,9,0.1
	c-0.9,1.6-3.2,4.9-6.5,6.2c-0.8,0.3-1.8,0.3-2.6,0c-0.8-0.4-1.5-1-1.8-1.9C51.5,25.3,52.3,23.4,54.1,22.7z"/>
</svg>
