<?xml version="1.0" encoding="utf-8"?>
<!-- Generator: Adobe Illustrator 21.1.0, SVG Export Plug-In . SVG Version: 6.00 Build 0)  -->
<svg version="1.1" id="Layer_1" xmlns="http://www.w3.org/2000/svg" xmlns:xlink="http://www.w3.org/1999/xlink" x="0px" y="0px"
	 viewBox="0 0 100 100" style="enable-background:new 0 0 100 100;" xml:space="preserve">
<title>78 all</title>
<path d="M78.4,25c-3.5-3.6-8.3-5.5-13.2-5.5c-5.6,0-11,2.1-15.2,5.8c-4.8-4.3-9.3-6.5-13.5-6.5c-5.6,0-11,2.2-14.9,6.2
	c-8.2,8.5-8.2,22,0,30.5L47,80c1.7,1.6,4.3,1.6,6,0l25.4-24.5C86.6,47,86.6,33.5,78.4,25L78.4,25z M75.6,52.6L50.2,77.2
	c-0.1,0.1-0.3,0.1-0.4,0l0,0L24.5,52.7c-6.7-6.9-6.7-17.9,0-24.8c3.2-3.3,7.5-5.1,12.1-5.1c3.4,0,7.5,2.3,12,6.6
	c0.9,0.8,2.2,0.8,3.1,0c3.5-3.6,8.4-5.7,13.4-5.8h0.1c3.9,0,7.7,1.5,10.4,4.3C82.1,34.8,82.1,45.7,75.6,52.6L75.6,52.6z"/>
<path d="M63.9,37.7L47.1,53.6L38,45.5c-0.8-0.7-2.1-0.7-2.8,0.2s-0.7,2.1,0.2,2.8l10.5,9.3c0.8,0.7,1.9,0.7,2.7,0l18.1-17.2
	c0.8-0.8,0.8-2,0.1-2.8C66,37,64.7,37,63.9,37.7z"/>
</svg>
