<?xml version="1.0" encoding="utf-8"?>
<!-- Generator: Adobe Illustrator 21.1.0, SVG Export Plug-In . SVG Version: 6.00 Build 0)  -->
<svg version="1.1" id="Layer_1" xmlns="http://www.w3.org/2000/svg" xmlns:xlink="http://www.w3.org/1999/xlink" x="0px" y="0px"
	 viewBox="0 0 100 100" style="enable-background:new 0 0 100 100;" xml:space="preserve">
<path d="M77.7,47.9l-3.2-1.2c-3.6-1.3-6.2-2.3-7.2-5.8c-1-3.6-4.3-6.2-8-6.2H43.4c-4.6,0-8.5,2.9-9.9,7.3c-0.8,2.5-2.3,3.1-4.7,4.1
	c-0.4,0.2-0.8,0.4-1.3,0.5l-5.8,2.6c-1.1,0.5-1.8,1.5-1.8,2.7v4.4c0,1.6,1.3,3,3,3h5.7c0.3,3.2,3,5.8,6.2,5.8c3.3,0,6-2.5,6.2-5.8
	h17.2c0.3,3.2,3,5.8,6.2,5.8c3.3,0,6-2.5,6.2-5.8h5.9c1.8,0,3.3-1.5,3.3-3.3v-5C80,49.6,79.1,48.3,77.7,47.9z M34.9,64.1
	c-2.8,0-5.1-2.3-5.1-5.1s2.3-5.1,5.1-5.1S40,56.2,40,59S37.7,64.1,34.9,64.1z M64.6,64.1c-2.8,0-5.1-2.3-5.1-5.1s2.3-5.1,5.1-5.1
	c2.8,0,5.1,2.3,5.1,5.1S67.4,64.1,64.6,64.1z M78.8,56.2c0,1.2-0.9,2.1-2.1,2.1h-5.9c-0.3-3.2-3-5.6-6.2-5.6c-3.2,0-5.9,2.5-6.2,5.6
	H41.1c-0.3-3.2-3-5.6-6.2-5.6s-5.9,2.5-6.2,5.6H23c-1,0-1.8-0.8-1.8-1.8v-4.4c0-0.7,0.4-1.4,1.1-1.7l5.8-2.6
	c0.4-0.2,0.8-0.4,1.2-0.5c2.5-1.1,4.5-1.9,5.4-4.9c1.2-3.9,4.7-6.5,8.7-6.5h15.9c3.2,0,6.1,2.2,6.9,5.3c1.1,4.1,4.1,5.2,7.9,6.6
	l3.2,1.2l0,0c0.9,0.3,1.5,1.1,1.5,2V56.2z"/>
</svg>
