<?xml version="1.0" encoding="utf-8"?>
<!-- Generator: Adobe Illustrator 21.1.0, SVG Export Plug-In . SVG Version: 6.00 Build 0)  -->
<svg version="1.1" id="Layer_1" xmlns="http://www.w3.org/2000/svg" xmlns:xlink="http://www.w3.org/1999/xlink" x="0px" y="0px"
	 viewBox="0 0 100 100" style="enable-background:new 0 0 100 100;" xml:space="preserve">
<style type="text/css">
	.st0{fill:#FFFFFF;}
</style>
<g>
	<path class="st0" d="M65.9,50.5c-0.5-8.5-7.4-15.3-15.9-15.2c-8.4,0-15.3,6.8-15.7,15.4L65.9,50.5z"/>
	<path class="st0" d="M43.7,54.8c0,8.2-7.3,17.3-7.3,22.5c0,9.8,6.3,17.8,13.9,17.7c7.6,0,13.8-8,13.8-17.9c0-5.1-7.5-14.3-7.5-22.4
		L43.7,54.8z"/>
	<path class="st0" d="M69.4,52.2l-38.7,0.2c-2.2,0-4-1.8-4.1-4v0c0-0.8,0.6-1.4,1.4-1.4L72,46.7c0.8,0,1.4,0.6,1.4,1.4v0
		C73.5,50.3,71.7,52.2,69.4,52.2z"/>
	<path class="st0" d="M70,38c-0.9,1.2-2,2.3-3.1,3.4c-4.5,3.9-10.4,6.1-16.8,6.1c-6.3,0-12.3-2.1-16.8-6c-4.7-4-7.2-9.4-7.3-15.1
		C26,14.6,36.7,5.1,49.9,5c6.3,0,12.3,2.1,16.8,6c4.7,4,7.2,9.4,7.3,15.1C74,30.4,72.6,34.5,70,38z M35.2,18.4
		c-1.7,2.3-2.7,5-2.7,7.9c0,3.8,1.8,7.5,5,10.2c3.3,2.9,7.8,4.4,12.5,4.4c4.8,0,9.2-1.6,12.5-4.5c3.2-2.8,4.9-6.4,4.9-10.3l0,0
		c0-3.8-1.8-7.5-5-10.2c-3.3-2.9-7.8-4.4-12.5-4.4C43.8,11.5,38.3,14.3,35.2,18.4z"/>
</g>
</svg>
