<?xml version="1.0" encoding="utf-8"?>
<!-- Generator: Adobe Illustrator 21.1.0, SVG Export Plug-In . SVG Version: 6.00 Build 0)  -->
<svg version="1.1" id="Layer_1" xmlns="http://www.w3.org/2000/svg" xmlns:xlink="http://www.w3.org/1999/xlink" x="0px" y="0px"
	 viewBox="0 0 100 100" style="enable-background:new 0 0 100 100;" xml:space="preserve">
<style type="text/css">
	.st0{fill:#FFFFFF;}
</style>
<path class="st0" d="M15.5,69.6c0.1-2.4,0.3-4.8,0.5-7.2c0.1-0.9-0.2-1.5-0.7-2.2c-2.8-3.1-3.9-6.8-3.1-10.9
	c0.3-1.9,1.3-3.6,1.9-5.4c0.5-1.4,1.1-2.8,1.6-4.2c0.2-0.4,0.3-0.8,0.8-0.9c0.6-0.1,0.7-0.8,0.8-1.2c1-2.6,2.2-5.1,3.5-7.6
	c2.5-4.9,5.4-9.5,9-13.6c1.2-1.4,2.6-2.6,3.8-3.9c0.5-0.6,0.5-0.9,0.1-1.5c-1.5-1.9-4.8-1.7-6,0.4c0,0,0,0.1,0,0.1
	c-0.2,0.4-3,2.3-3.5,2.4c-1,0.2-2.4-0.6-2.6-1.5c-0.2-1,0.7-2.5,2-2.8c0.7-0.2,1.4-0.3,2.1-0.7c0,0,0.1-0.1,0.2-0.1
	c1.7,0.5,3.1-0.7,4.7-0.9c1.9-0.2,4,0.7,5,2.4c0.4,0.6,0.7,0.7,1.4,0.6c3.2-0.6,5.9,0.4,8,2.8c0.6,0.7,1,1.5,2.1,1.5
	c0.1,0,0.3,0.1,0.3,0.2c0.7,1,1.9,1.6,2.8,2.5c0.9,1,0.7,2.2-0.4,3c-1.1,0.8-2,0.6-2.8-0.5c-0.4-0.7-0.9-1.3-1.4-1.9
	c-0.4-0.5-0.8-1-0.8-1.7c0-0.5-0.3-0.9-0.6-1.3c-1.6-2.1-3.7-3.1-6.4-2.9c-0.7,0.1-1.1,0.4-1,1.2c0.5,4.7,0.4,9.4,0.2,14
	c-0.3,4.9-1,9.8-2.1,14.6c-0.1,0.5-0.3,0.9-0.4,1.4c-0.1,0.2-0.2,0.5,0,0.6c0.7,0.5,0.4,1.2,0.3,1.8c-0.5,2.6-1.1,5.1-1.6,7.7
	c-0.5,2.9-2.2,5-4.4,6.8c-1.8,1.4-3.8,2.3-6.1,2.3c-0.4,0-0.7,0-1,0.4c-1.9,3.1-3.1,6.3-2.4,9.9c0.6,3.1,2.5,5.2,5.1,6.8
	c4,2.4,8,1.8,12-0.1c4.8-2.3,7.5-6.5,9.4-11.2c1.3-3.1,2-6.4,2.9-9.7c1-3.5,1.8-7,3.1-10.5c1.4-3.9,3.3-7.5,6.1-10.6
	c5-5.5,14-6.8,20.4-2.9c5.3,3.2,8.5,7.8,9.5,13.8c0.8,4.5,0,8.8-1.9,13c-1.9,4.2-4.7,7.8-8.2,11c-2.4,2.2-4.9,4.4-7.5,6.5
	c-0.5,0.4-2.5,2-2.3,2.9c0.8,3.5-0.6,6.8-3.6,8.7c-4.9,3-11.6-0.4-12-6.2c-0.2-3.4,1.3-5.9,4.1-7.5c2.7-1.6,5.6-1.4,8.2,0.4
	c0.8,0.5,1.2,0.4,1.9-0.1c1.9-1.6,3.9-2.9,5.8-4.5c3.5-3,6.8-6.2,9.1-10.3c1.8-3.3,3.1-6.8,3-10.6c-0.2-5.2-2.2-9.5-6.4-12.8
	c-2-1.6-4.2-2.7-6.7-2.9c-4.8-0.5-8.7,1.2-11.8,4.9c-2.3,2.7-3.8,5.9-4.8,9.2c-1.7,5.4-2.9,11-4.7,16.3c-1.7,4.9-3.8,9.5-7.6,13.1
	c-4.5,4.2-9.9,5.8-15.9,4.7c-5.6-1.1-10.2-6.3-10.7-11.9C15.6,71.7,15.5,70.6,15.5,69.6z M28.9,20.4c-4,5.4-7.2,11.3-9.6,17.5
	c-0.3,0.7-0.8,1.5-0.2,2.3c0.1,0.1,0,0.4-0.1,0.6c-0.6,2.1-1.2,4.1-1.9,6.1c-0.4,1.3-1.1,2.6-1.3,4c-0.4,3.2,1.3,6.2,4,7.4
	c3.8,1.6,8.1-0.2,9.1-4.3c0.7-3,1.8-5.9,2.4-9c0.1-0.3,0.1-0.7,0.4-0.8c0.7-0.2,0.7-0.8,0.9-1.4c2-8.2,2.7-16.5,2.4-24.9
	c0-1.1-0.1-2.2-0.2-3.3c0-0.2,0-0.5-0.3-0.6c-0.2-0.1-0.4,0.1-0.5,0.3c-0.6,0.5-1.2,1.1-1.7,1.7C31.4,17.2,29.1,20.1,28.9,20.4z"/>
</svg>
