<?xml version="1.0" encoding="utf-8"?>
<!-- Generator: Adobe Illustrator 21.1.0, SVG Export Plug-In . SVG Version: 6.00 Build 0)  -->
<svg version="1.1" id="Layer_1" xmlns="http://www.w3.org/2000/svg" xmlns:xlink="http://www.w3.org/1999/xlink" x="0px" y="0px"
	 viewBox="0 0 100 100" style="enable-background:new 0 0 100 100;" xml:space="preserve">
<style type="text/css">
	.st0{fill:#FFFFFF;}
</style>
<path class="st0" d="M83.4,40H64.6l-7.7-19.5c-0.4-0.9-1.2-1.5-2.2-1.5H45c-1,0-1.9,0.6-2.2,1.5L35.1,40H16.3C15,40,14,41.2,14,42.4
	v5.5c0,1.3,1,2.1,2.3,2.1H17l5.1,26.8c0,0,0.8,2.2,3.2,2.2s17.6,0,17.6,0h13.9c0,0,15.2,0,17.6,0s3.2-2.2,3.2-2.2L82.7,50h0.7
	c1.3,0,2.6-0.8,2.6-2.1v-5.5C86,41.2,84.7,40,83.4,40z M31,71.1c0,1.2-0.8,2.2-2,2.2c-1.2,0-2-1-2-2.2V53.1c0-1.2,0.8-2.2,2-2.2
	s2,1,2,2.2V71.1z M42,71.1c0,1.2-1.3,2.2-2.5,2.2c-1.2,0-2.5-1-2.5-2.2V53.1c0-1.2,1.3-2.2,2.5-2.2c1.2,0,2.5,1,2.5,2.2V71.1z
	 M52,71.1c0,1.2-0.8,2.2-2,2.2c-1.2,0-2-1-2-2.2V53.1c0-1.2,0.8-2.2,2-2.2c1.2,0,2,1,2,2.2V71.1z M63,71.1c0,1.2-1.3,2.2-2.5,2.2
	c-1.2,0-2.5-1-2.5-2.2V53.1c0-1.2,1.3-2.2,2.5-2.2s2.5,1,2.5,2.2V71.1z M73,71.1c0,1.2-0.8,2.2-2,2.2c-1.2,0-2-1-2-2.2V53.1
	c0-1.2,0.8-2.2,2-2.2s2,1,2,2.2V71.1z M46.6,24c1.8,0,4.6,0,6.4,0c0.6,1,3.8,10,6.4,16H40.3C42.9,34,46,25,46.6,24z"/>
</svg>
