<?xml version="1.0" encoding="utf-8"?>
<!-- Generator: Adobe Illustrator 21.1.0, SVG Export Plug-In . SVG Version: 6.00 Build 0)  -->
<svg version="1.1" id="Layer_1" xmlns="http://www.w3.org/2000/svg" xmlns:xlink="http://www.w3.org/1999/xlink" x="0px" y="0px"
	 viewBox="0 0 100 100" style="enable-background:new 0 0 100 100;" xml:space="preserve">
<style type="text/css">
	.st0{fill:#FFFFFF;}
</style>
<path class="st0" d="M32.4,26h35.2c2.3,0,4.4,1.2,5.6,3.1l8,13.1h3.6l-9.6-15.6c-1.2-1.9-3.3-3.1-5.6-3.1H30.3
	c-2.3,0-4.4,1.2-5.6,3.1l-9.6,15.6h3.6l8-13.1C28,27.1,30.1,26,32.4,26z"/>
<g>
	<g>
		<path class="st0" d="M89.4,37.9h-8.2v-3c0-1.7,1.3-3,3-3h7.1c1.1,0,2.1,0.9,2.1,2.1l0,0C93.4,36.1,91.6,37.9,89.4,37.9z"/>
		<rect x="80.2" y="36.5" transform="matrix(0.5 -0.866 0.866 0.5 8.2252 90.3609)" class="st0" width="4.3" height="3.2"/>
	</g>
	<g>
		<path class="st0" d="M10.6,37.9h8.2v-3c0-1.7-1.3-3-3-3H8.7c-1.1,0-2.1,0.9-2.1,2.1l0,0C6.6,36.1,8.4,37.9,10.6,37.9z"/>
		<rect x="16" y="35.8" transform="matrix(0.866 -0.5 0.5 0.866 -16.6091 13.8989)" class="st0" width="3.2" height="4.3"/>
	</g>
</g>
<path class="st0" d="M83.3,41.3H16.7c-2.9,0-5.1,2.4-5,5.3l0.5,7.7c0.1,1.5,0.4,3,0.9,4.4V69c0,2.2,1.8,4.1,4.1,4.1h6.3
	c2.2,0,4-1.8,4.1-4c0.1,0,0.2,0,0.4,0h44.2c0.1,0,0.2,0,0.4,0c0,2.2,1.8,4,4.1,4H83c2.2,0,4.1-1.8,4.1-4.1V58.7
	c0.5-1.4,0.8-2.9,0.9-4.4l0.5-7.7C88.5,43.7,86.2,41.3,83.3,41.3z M33.2,58.8H17.8c-2,0-3.7-2-3.7-4.5c0-1.1,0.8-2,1.7-1.9l16.7,2.8
	c1,0.2,1.8,1.2,1.8,2.3C34.4,58.2,33.9,58.8,33.2,58.8z M82.2,58.8H66.8c-0.6,0-1.2-0.6-1.2-1.3c0-1.2,0.8-2.1,1.8-2.3l16.7-2.8
	c0.9-0.2,1.7,0.7,1.7,1.9C85.9,56.7,84.2,58.8,82.2,58.8z"/>
</svg>
